<svg xmlns="http://www.w3.org/2000/svg" xmlns:svg="http://www.w3.org/2000/svg" enable-background="new 0 0 340 340" version="1.1" xml:space="preserve" viewBox="0 0 340 340">

 <g class="layer">
  <title>Layer 1</title>
  <g class="logo__icon" fill="#5cd8e5" id="svg_1">
   <path d="m321.39,8l-303.47,0a9.92,9.92 0 0 0 -9.92,9.92l0,41.63l161.63,0a110.13,110.13 0 0 1 91.62,171.13l69.74,0l0,-212.75a9.87,9.87 0 0 0 -9.6,-9.92z" id="svg_2"/>
   <path d="m59.55,169.63a109.81,109.81 0 0 1 18.45,-61.05l-70.01,0l0,212.81a9.87,9.87 0 0 0 9.92,9.87l303.47,0a9.87,9.87 0 0 0 9.87,-9.87l0,-41.68l-161.63,0a110.08,110.08 0 0 1 -110.08,-110.08z" id="svg_3"/>
   <path d="m249.67,166.84a124.08,124.08 0 0 1 -30.74,7.46a53.64,53.64 0 0 0 -0.32,-12.39a131.21,131.21 0 0 0 26.45,-31.17a11.86,11.86 0 0 0 -20.06,-12.71a118.02,118.02 0 0 1 -16.36,20.87a48.66,48.66 0 0 0 -10.19,-9.71a97.85,97.85 0 0 0 -1.66,-20.81a167.48,167.48 0 0 0 -7.56,-27.09a11.86,11.86 0 0 0 -15.23,-7.08a11.32,11.32 0 0 0 -4.35,2.74a11.96,11.96 0 0 0 -2.79,12.5c1.07,2.84 1.98,5.36 2.79,8.21c1.18,3.81 2.15,7.4 2.95,10.73a101.33,101.33 0 0 1 1.72,12.28a46.24,46.24 0 0 0 -12.34,0.32a131.54,131.54 0 0 0 -31.22,-26.5a11.91,11.91 0 0 0 -12.71,20.12a118.39,118.39 0 0 1 20.92,16.09a50.16,50.16 0 0 0 -9.76,10.19a127.94,127.94 0 0 0 -47.9,9.28a11.86,11.86 0 0 0 8.15,22.32a124.88,124.88 0 0 1 31.22,-7.67c0,1.61 -0.27,3.22 -0.27,4.83a49.51,49.51 0 0 0 0.59,7.51a130.14,130.14 0 0 0 -26.5,31.17a11.86,11.86 0 0 0 10.03,18.24a11.8,11.8 0 0 0 10.09,-5.36a115.87,115.87 0 0 1 16.09,-20.87a53.27,53.27 0 0 0 10.19,9.76a94.52,94.52 0 0 0 1.72,20.76a162.11,162.11 0 0 0 7.56,27.09a11.8,11.8 0 0 0 11.1,7.56a12.07,12.07 0 0 0 4.08,-0.7a12.39,12.39 0 0 0 4.29,-2.79a11.8,11.8 0 0 0 2.79,-12.45c-1.02,-2.9 -1.98,-5.36 -2.79,-8.26c-1.18,-3.81 -2.15,-7.35 -2.9,-10.73a88.94,88.94 0 0 1 -1.93,-11.75l4.83,0a50.21,50.21 0 0 0 7.56,-0.54a130.84,130.84 0 0 0 31.11,26.45a11.86,11.86 0 1 0 12.71,-20.06a119.84,119.84 0 0 1 -20.87,-16.36a50.32,50.32 0 0 0 9.76,-10.19l2.74,0a134.11,134.11 0 0 0 45.11,-9.28a11.91,11.91 0 0 0 -8.1,-22.37l0,0.38zm-53.64,2.79l0,2.15a26.29,26.29 0 0 1 -9.33,18.19a24.19,24.19 0 0 1 -3.27,2.36a26.82,26.82 0 0 1 -13.89,3.92l-2.15,0a26.29,26.29 0 0 1 -18.13,-9.28a31.06,31.06 0 0 1 -2.41,-3.33a26.82,26.82 0 0 1 -3.92,-13.89c0,-0.7 0,-1.45 0,-2.15a25.16,25.16 0 0 1 0.64,-4.02a26.82,26.82 0 0 1 8.64,-14.11a37.55,37.55 0 0 1 3.33,-2.41a26.82,26.82 0 0 1 13.89,-3.92l2.15,0a25.8,25.8 0 0 1 4.08,0.64a26.82,26.82 0 0 1 14.11,8.69a24.19,24.19 0 0 1 2.36,3.27a26.82,26.82 0 0 1 4.13,13.89l-0.21,0z" id="svg_4"/>
  </g>
 </g>
</svg>
